<svg xmlns="http://www.w3.org/2000/svg" xmlns:xlink="http://www.w3.org/1999/xlink" width="500" zoomAndPan="magnify" viewBox="0 0 375 374.999991" height="500" preserveAspectRatio="xMidYMid meet" version="1.0"><defs><clipPath id="9f92b6ec1f"><path d="M 92 14.308594 L 252 14.308594 L 252 266.308594 L 92 266.308594 Z M 92 14.308594 " clip-rule="nonzero"/></clipPath></defs><g clip-path="url(#9f92b6ec1f)"><path fill="#0a0a09" d="M 148.148438 217.308594 C 147.90625 215.707031 147.375 214.328125 146.835938 212.957031 C 144.925781 208.097656 142.667969 203.398438 140.449219 198.675781 C 137.226562 191.824219 134.273438 184.839844 130.695312 178.152344 C 126.316406 169.957031 121.28125 162.15625 116.234375 154.359375 C 111.460938 146.976562 106.757812 139.554688 102.917969 131.625 C 99.125 123.796875 95.867188 115.757812 94.136719 107.207031 C 90 86.726562 93.796875 67.839844 105.792969 50.644531 C 115.121094 37.28125 127.707031 28.136719 142.769531 22.207031 C 150.480469 19.167969 158.480469 17.207031 166.65625 15.925781 C 171.773438 15.125 176.90625 14.5 182.105469 14.578125 C 189.980469 14.695312 197.449219 16.398438 204.585938 19.785156 C 215.054688 24.75 223.886719 31.761719 231.4375 40.480469 C 235.40625 45.058594 239.160156 49.773438 242.289062 54.984375 C 247.175781 63.121094 250.109375 71.898438 251.117188 81.316406 C 251.988281 89.480469 251.972656 97.65625 251.117188 105.828125 C 250.078125 115.710938 247.207031 125.046875 242.789062 133.941406 C 236.296875 147.019531 228.660156 159.363281 219.507812 170.789062 C 212.253906 179.839844 205.214844 189.066406 198.410156 198.464844 C 195.53125 202.4375 193.289062 206.78125 191.15625 211.183594 C 190.433594 212.675781 190.050781 214.28125 189.777344 215.910156 C 189.667969 216.546875 189.667969 217.023438 190.398438 217.378906 C 191.910156 218.117188 192.597656 219.460938 192.816406 221.082031 C 193.160156 223.667969 192.730469 226.234375 192.574219 228.804688 C 192.410156 231.433594 192.261719 234.070312 191.988281 236.679688 C 191.675781 239.707031 191.121094 242.761719 189.695312 245.550781 C 188.664062 247.574219 187.148438 248.992188 184.863281 249.421875 C 183.890625 249.601562 183.328125 250.078125 183.074219 251.046875 C 182.6875 252.535156 182.21875 254 181.777344 255.472656 C 181.433594 256.628906 181.109375 257.792969 180.726562 258.933594 C 179.371094 262.976562 176.417969 265.007812 172.292969 265.550781 C 168.296875 266.082031 164.269531 266.09375 160.253906 266.085938 C 156.753906 266.078125 154.167969 264.386719 152.675781 261.179688 C 151.234375 258.085938 150.628906 254.804688 150.667969 251.417969 C 150.679688 250.414062 150.492188 249.847656 149.445312 249.46875 C 147.164062 248.65625 145.804688 246.898438 145.054688 244.644531 C 144.199219 242.085938 143.710938 239.441406 143.28125 236.78125 C 142.722656 233.3125 142.265625 229.828125 142.035156 226.316406 C 141.902344 224.269531 142.082031 222.265625 142.941406 220.351562 C 143.832031 218.375 145.121094 217.066406 147.5 217.386719 C 147.65625 217.40625 147.820312 217.351562 148.148438 217.308594 Z M 166.242188 134.421875 C 166.609375 134.175781 166.511719 133.816406 166.527344 133.511719 C 166.773438 128.074219 167.214844 122.65625 167.742188 117.242188 C 167.867188 115.960938 167.796875 115.902344 166.40625 115.875 C 163.378906 115.820312 160.355469 115.808594 157.328125 115.585938 C 151.957031 115.183594 147.714844 112.695312 144.070312 108.953125 C 143.09375 107.945312 142.4375 106.742188 142.203125 105.347656 C 141.871094 103.371094 142.96875 101.738281 144.914062 101.265625 C 145.890625 101.027344 146.875 101.0625 147.871094 101.164062 C 151.953125 101.578125 155.839844 102.742188 159.652344 104.214844 C 162.925781 105.476562 165.621094 107.46875 167.640625 110.351562 C 167.796875 110.570312 167.875 111.007812 168.421875 110.796875 C 169.058594 105.601562 170.085938 100.445312 171.625 95.402344 C 171.855469 94.644531 171.550781 94.375 171.003906 94.167969 C 170.027344 93.796875 169.035156 93.46875 168.046875 93.132812 C 165.285156 92.1875 162.5625 91.152344 160.144531 89.472656 C 158.335938 88.21875 156.921875 86.625 156.222656 84.515625 C 155.488281 82.316406 155.777344 80.21875 157.5 78.585938 C 159.117188 77.046875 161.023438 77.355469 162.894531 78.1875 C 163.09375 78.277344 163.296875 78.363281 163.492188 78.460938 C 167.914062 80.613281 170.851562 84.117188 172.757812 88.5625 C 172.933594 88.980469 172.984375 89.46875 173.359375 89.78125 C 173.71875 89.539062 173.757812 89.195312 173.886719 88.894531 C 174.871094 86.570312 175.800781 84.21875 176.878906 81.9375 C 177.5 80.621094 177.96875 79.351562 177.746094 77.855469 C 177.636719 77.113281 177.730469 76.3125 177.867188 75.5625 C 178.84375 70.113281 181.195312 65.359375 185.171875 61.453125 C 186.515625 60.132812 188.039062 59.058594 189.769531 58.289062 C 190.789062 57.835938 191.851562 57.566406 192.972656 57.636719 C 196.539062 57.855469 198.949219 61.242188 198.160156 64.964844 C 197.558594 67.820312 195.9375 70.074219 193.8125 72 C 190.996094 74.550781 187.988281 76.867188 184.847656 79.003906 C 183.484375 79.933594 182.105469 80.902344 180.53125 81.390625 C 179.777344 81.625 179.449219 82.019531 179.175781 82.628906 C 176.929688 87.640625 174.773438 92.6875 173.371094 98.019531 C 173.222656 98.582031 172.933594 99.132812 173.109375 99.839844 C 174.082031 99.417969 174.699219 98.621094 175.488281 98.0625 C 180.6875 94.386719 186.488281 92.117188 192.679688 90.777344 C 193.589844 90.582031 194.523438 90.480469 195.46875 90.59375 C 198.28125 90.9375 199.777344 92.6875 199.671875 95.519531 C 199.625 96.65625 199.222656 97.660156 198.589844 98.585938 C 197.871094 99.636719 196.972656 100.519531 195.960938 101.296875 C 193.9375 102.851562 191.632812 103.898438 189.351562 104.992188 C 183.996094 107.550781 178.425781 108.648438 172.507812 107.605469 C 171.355469 107.402344 171.339844 107.457031 171.164062 108.585938 C 170.4375 113.3125 170.082031 118.078125 169.632812 122.835938 C 169.617188 123.019531 169.546875 123.273438 169.832031 123.355469 C 169.9375 123.316406 170.054688 123.304688 170.128906 123.242188 C 175.835938 118.28125 182.65625 116.105469 190.035156 115.359375 C 191.179688 115.242188 192.351562 115.324219 193.4375 115.816406 C 194.957031 116.503906 195.613281 117.867188 195.175781 119.46875 C 194.914062 120.441406 194.375 121.269531 193.714844 122.023438 C 192.316406 123.625 190.566406 124.75 188.683594 125.699219 C 182.578125 128.769531 176.113281 129.925781 169.316406 129.28125 C 168.796875 132.050781 168.628906 140.195312 169.09375 141.730469 C 174.042969 137.335938 179.902344 135.050781 186.34375 134.109375 C 188.417969 133.804688 190.523438 133.644531 192.5625 134.3125 C 195.484375 135.273438 196.0625 137.726562 193.894531 139.882812 C 192.785156 140.992188 191.429688 141.710938 189.976562 142.269531 C 186.253906 143.691406 182.402344 144.527344 178.429688 144.898438 C 175.683594 145.152344 172.929688 145.136719 170.179688 145.296875 C 168.847656 145.378906 168.820312 145.417969 168.84375 146.722656 C 168.933594 151.335938 169.050781 155.949219 169.148438 160.566406 C 169.390625 172.046875 169.375 183.53125 169.234375 195.015625 C 169.175781 200.015625 169.078125 205.015625 168.5625 209.996094 C 168.328125 212.28125 167.90625 214.53125 167.355469 216.722656 C 167.734375 217 168.066406 216.859375 168.386719 216.832031 C 171.679688 216.558594 174.976562 216.355469 178.285156 216.425781 C 180.984375 216.480469 183.683594 216.433594 186.382812 216.480469 C 187.070312 216.492188 187.339844 216.304688 187.421875 215.59375 C 187.648438 213.675781 188.179688 211.824219 189.023438 210.082031 C 191.226562 205.527344 193.566406 201.050781 196.546875 196.941406 C 203.390625 187.503906 210.46875 178.242188 217.75 169.140625 C 226.96875 157.625 234.640625 145.167969 241.078125 131.933594 C 245.027344 123.8125 247.609375 115.300781 248.617188 106.308594 C 249.523438 98.246094 249.574219 90.183594 248.777344 82.125 C 247.980469 74.066406 245.761719 66.414062 241.925781 59.238281 C 238.402344 52.644531 233.847656 46.824219 228.914062 41.242188 C 221.945312 33.359375 213.847656 27.003906 204.371094 22.339844 C 197.121094 18.769531 189.503906 17 181.449219 16.953125 C 176.753906 16.925781 172.113281 17.519531 167.484375 18.230469 C 158.644531 19.585938 150.019531 21.738281 141.753906 25.207031 C 128.976562 30.570312 118.039062 38.367188 109.628906 49.488281 C 95.972656 67.554688 91.824219 87.613281 97.167969 109.570312 C 99.4375 118.90625 103.335938 127.628906 107.910156 136.058594 C 111.847656 143.304688 116.402344 150.179688 120.863281 157.109375 C 127.085938 166.769531 133.0625 176.566406 137.757812 187.082031 C 139.613281 191.242188 141.589844 195.351562 143.488281 199.496094 C 146.046875 205.082031 148.824219 210.585938 150.300781 216.597656 C 150.460938 217.257812 150.804688 217.488281 151.449219 217.503906 C 155.632812 217.589844 159.820312 217.71875 164 217.363281 C 164.667969 217.308594 164.851562 217.027344 165.070312 216.421875 C 165.789062 214.429688 166.039062 212.363281 166.222656 210.285156 C 166.671875 205.246094 166.75 200.191406 166.847656 195.140625 C 167.179688 177.773438 166.671875 160.414062 166.398438 143.050781 C 166.390625 142.449219 166.390625 141.84375 166.375 141.238281 C 166.324219 139.421875 165.878906 138.90625 164.152344 138.65625 C 163.714844 138.59375 163.273438 138.566406 162.835938 138.527344 C 159.105469 138.183594 155.382812 137.789062 151.800781 136.605469 C 149.179688 135.742188 146.628906 134.703125 144.40625 133.039062 C 142.320312 131.476562 141.382812 129.25 141.980469 127.515625 C 142.601562 125.71875 144.636719 124.488281 147.164062 124.363281 C 148.613281 124.292969 150.007812 124.523438 151.394531 124.929688 C 157.117188 126.601562 162.25 129.183594 165.875 134.132812 C 165.964844 134.253906 166.117188 134.324219 166.242188 134.421875 Z M 159.371094 239.1875 C 161.4375 238.820312 163.773438 239.03125 166.050781 238.734375 C 169.480469 238.289062 172.933594 238.15625 176.375 237.917969 C 179.113281 237.730469 181.851562 237.632812 184.558594 237.171875 C 185.910156 236.941406 187.253906 236.660156 188.597656 236.402344 C 189.339844 236.257812 189.722656 235.878906 189.691406 235.046875 C 189.632812 233.457031 189.824219 231.878906 189.992188 230.296875 C 190.132812 228.960938 190.023438 228.910156 188.652344 228.921875 C 186.675781 228.945312 184.703125 229.066406 182.730469 229.167969 C 180.320312 229.292969 177.914062 229.535156 175.5 229.652344 C 173.917969 229.730469 172.320312 229.824219 170.742188 229.988281 C 167.242188 230.347656 163.730469 230.394531 160.222656 230.511719 C 158.863281 230.558594 157.5 230.226562 156.121094 230.25 C 153.480469 230.296875 150.867188 229.984375 148.25 229.65625 C 147.382812 229.546875 146.492188 229.597656 145.613281 229.570312 C 144.960938 229.546875 144.710938 229.867188 144.804688 230.488281 C 145.128906 232.707031 145.441406 234.925781 145.789062 237.136719 C 145.875 237.707031 146.15625 238.070312 146.851562 238.179688 C 150.925781 238.828125 155.050781 238.785156 159.371094 239.1875 Z M 160.757812 227.960938 C 164.601562 228.125 168.394531 227.832031 172.175781 227.539062 C 177.058594 227.160156 181.929688 226.671875 186.828125 226.585938 C 187.761719 226.570312 188.691406 226.4375 189.625 226.371094 C 190.070312 226.335938 190.375 226.140625 190.359375 225.667969 C 190.316406 224.300781 190.683594 222.953125 190.429688 221.570312 C 190.136719 219.984375 189.503906 219.25 187.875 219.0625 C 186.894531 218.949219 185.898438 218.960938 184.90625 218.949219 C 183.089844 218.929688 181.265625 219.050781 179.460938 218.902344 C 175.871094 218.613281 172.316406 218.929688 168.757812 219.257812 C 165.859375 219.523438 162.964844 219.933594 160.050781 219.980469 C 156.035156 220.039062 152.023438 220.035156 148.007812 219.800781 C 145.546875 219.65625 145.085938 220.558594 144.644531 222.15625 C 144.269531 223.511719 144.382812 224.875 144.371094 226.246094 C 144.363281 227.027344 144.714844 227.265625 145.46875 227.300781 C 150.578125 227.542969 155.671875 228.121094 160.757812 227.960938 Z M 180.808594 250.105469 C 178.941406 249.992188 177.203125 250.128906 175.460938 250.257812 C 171.28125 250.570312 167.089844 250.320312 162.910156 250.507812 C 159.832031 250.644531 156.746094 250.914062 153.671875 250.460938 C 153.011719 250.363281 152.757812 250.609375 152.792969 251.25 C 152.980469 254.507812 153.492188 257.691406 155.066406 260.613281 C 156.125 262.574219 157.804688 263.65625 160.007812 263.652344 C 163.96875 263.640625 167.941406 263.714844 171.886719 263.203125 C 175.246094 262.769531 177.628906 261.148438 178.59375 257.761719 C 179.308594 255.238281 180.050781 252.722656 180.808594 250.105469 Z M 146.5625 240.582031 C 146.628906 241.789062 147.015625 242.75 147.300781 243.738281 C 147.964844 246.054688 149.574219 247.300781 151.859375 247.746094 C 154.679688 248.292969 157.511719 248.335938 160.390625 248.191406 C 166.214844 247.898438 172.054688 248.136719 177.878906 247.753906 C 179.578125 247.640625 181.285156 247.578125 182.976562 247.367188 C 184.234375 247.214844 185.554688 247.007812 186.4375 246.003906 C 188.242188 243.953125 188.808594 241.433594 189.101562 238.683594 C 188.515625 238.773438 188.136719 238.804688 187.765625 238.886719 C 184.816406 239.550781 181.84375 240.027344 178.816406 240.253906 C 176.675781 240.414062 174.53125 240.40625 172.394531 240.601562 C 169.21875 240.898438 166.046875 241.242188 162.867188 241.402344 C 157.472656 241.671875 152.09375 241.390625 146.5625 240.582031 Z M 176.921875 105.589844 C 178.410156 105.722656 179.832031 105.433594 181.207031 105.152344 C 185.832031 104.207031 190.082031 102.300781 193.984375 99.671875 C 195.308594 98.777344 196.496094 97.691406 197.085938 96.132812 C 197.707031 94.484375 196.828125 93.109375 195.097656 93.054688 C 194.386719 93.03125 193.644531 93 192.960938 93.160156 C 186.539062 94.652344 180.496094 97.019531 175.269531 101.144531 C 174.238281 101.957031 173.277344 102.875 172.570312 104.011719 C 172.09375 104.777344 172.207031 105.183594 173.042969 105.226562 C 174.359375 105.289062 175.632812 105.777344 176.921875 105.589844 Z M 179.855469 77.347656 C 179.824219 78.324219 179.855469 78.667969 180.046875 78.761719 C 180.546875 79.019531 180.867188 78.589844 181.222656 78.386719 C 185.523438 75.90625 189.382812 72.832031 192.988281 69.441406 C 194.503906 68.023438 195.496094 66.246094 195.855469 64.183594 C 196.332031 61.457031 194.039062 59.453125 191.390625 60.25 C 190.269531 60.589844 189.292969 61.199219 188.363281 61.890625 C 185.613281 63.945312 183.699219 66.671875 182.175781 69.679688 C 180.929688 72.140625 180.140625 74.757812 179.855469 77.347656 Z M 166.875 113.507812 C 165.347656 110.625 163.351562 108.65625 160.730469 107.351562 C 157.460938 105.730469 153.996094 104.671875 150.417969 103.964844 C 149.066406 103.699219 147.703125 103.515625 146.320312 103.5625 C 144.757812 103.617188 144.273438 104.355469 144.851562 105.820312 C 144.988281 106.171875 145.1875 106.527344 145.441406 106.804688 C 147.839844 109.445312 150.535156 111.667969 154.097656 112.558594 C 158.195312 113.585938 162.378906 113.5 166.875 113.507812 Z M 173.359375 127.03125 C 175.195312 127.136719 177.132812 126.71875 179.070312 126.382812 C 183.070312 125.683594 186.777344 124.203125 190.164062 121.980469 C 191.121094 121.355469 191.992188 120.550781 192.496094 119.476562 C 192.964844 118.46875 192.628906 117.871094 191.511719 117.816406 C 190.308594 117.75 189.09375 117.703125 187.894531 117.921875 C 184.863281 118.480469 181.917969 119.332031 179.066406 120.496094 C 176.566406 121.519531 174.167969 122.726562 172.082031 124.464844 C 171.617188 124.847656 171.148438 125.25 170.785156 125.722656 C 170.230469 126.445312 170.484375 126.957031 171.386719 127.023438 C 171.988281 127.066406 172.597656 127.03125 173.359375 127.03125 Z M 164.390625 136.175781 C 163.585938 134.785156 161.949219 133.007812 160.710938 132.042969 C 157.300781 129.390625 153.367188 127.894531 149.234375 126.847656 C 147.980469 126.53125 146.71875 126.644531 145.519531 127.160156 C 144.34375 127.664062 144.027344 128.5625 144.625 129.691406 C 145.023438 130.433594 145.613281 131.003906 146.339844 131.429688 C 148.667969 132.792969 151.085938 133.949219 153.714844 134.636719 C 157.171875 135.539062 160.707031 135.894531 164.390625 136.175781 Z M 158.28125 82.695312 C 158.246094 83.304688 158.496094 83.914062 158.804688 84.5 C 159.535156 85.898438 160.617188 86.972656 161.949219 87.796875 C 164.488281 89.371094 167.261719 90.410156 170.113281 91.257812 C 170.421875 91.351562 170.765625 91.574219 171.039062 91.320312 C 171.371094 91.007812 171.15625 90.605469 171.023438 90.257812 C 169.25 85.714844 166.277344 82.273438 161.738281 80.308594 C 159.640625 79.398438 158.277344 80.335938 158.28125 82.695312 Z M 171.183594 142.855469 C 174.941406 142.84375 178.28125 142.613281 181.582031 142.070312 C 184.503906 141.589844 187.378906 140.851562 190.082031 139.589844 C 190.929688 139.191406 191.757812 138.753906 192.359375 138.003906 C 192.84375 137.40625 192.773438 137.023438 192.09375 136.714844 C 191.386719 136.398438 190.628906 136.28125 189.847656 136.28125 C 185.777344 136.28125 181.925781 137.320312 178.171875 138.761719 C 175.761719 139.683594 173.535156 140.96875 171.183594 142.855469 Z M 166.242188 134.421875 C 166.117188 134.324219 165.964844 134.253906 165.875 134.132812 C 162.25 129.183594 157.117188 126.601562 151.394531 124.929688 C 150.007812 124.523438 148.613281 124.292969 147.164062 124.363281 C 144.636719 124.488281 142.601562 125.71875 141.980469 127.515625 C 141.382812 129.25 142.320312 131.476562 144.40625 133.039062 C 146.628906 134.703125 149.179688 135.742188 151.800781 136.605469 C 155.382812 137.789062 159.105469 138.183594 162.835938 138.527344 C 163.273438 138.566406 163.714844 138.59375 164.152344 138.65625 C 165.878906 138.90625 166.324219 139.421875 166.375 141.238281 C 166.390625 141.84375 166.390625 142.449219 166.398438 143.050781 C 166.671875 160.414062 167.179688 177.773438 166.847656 195.140625 C 166.75 200.191406 166.671875 205.246094 166.222656 210.285156 C 166.039062 212.363281 165.789062 214.429688 165.070312 216.421875 C 164.851562 217.027344 164.667969 217.308594 164 217.363281 C 159.820312 217.71875 155.632812 217.589844 151.449219 217.503906 C 150.804688 217.488281 150.460938 217.257812 150.300781 216.597656 C 148.824219 210.585938 146.046875 205.082031 143.488281 199.496094 C 141.589844 195.351562 139.613281 191.242188 137.757812 187.082031 C 133.0625 176.566406 127.085938 166.769531 120.863281 157.109375 C 116.402344 150.179688 111.847656 143.304688 107.910156 136.058594 C 103.335938 127.628906 99.4375 118.90625 97.167969 109.570312 C 91.824219 87.613281 95.972656 67.554688 109.628906 49.488281 C 118.039062 38.367188 128.976562 30.570312 141.753906 25.207031 C 150.019531 21.738281 158.644531 19.585938 167.484375 18.230469 C 172.113281 17.519531 176.753906 16.925781 181.449219 16.953125 C 189.503906 17 197.121094 18.769531 204.371094 22.339844 C 213.847656 27.003906 221.945312 33.359375 228.914062 41.242188 C 233.847656 46.824219 238.402344 52.644531 241.925781 59.238281 C 245.761719 66.414062 247.980469 74.066406 248.777344 82.125 C 249.574219 90.183594 249.523438 98.246094 248.617188 106.308594 C 247.609375 115.300781 245.027344 123.8125 241.078125 131.933594 C 234.640625 145.167969 226.96875 157.625 217.75 169.140625 C 210.46875 178.242188 203.390625 187.503906 196.546875 196.941406 C 193.566406 201.050781 191.226562 205.527344 189.023438 210.082031 C 188.179688 211.824219 187.648438 213.675781 187.421875 215.59375 C 187.339844 216.304688 187.070312 216.492188 186.382812 216.480469 C 183.683594 216.433594 180.984375 216.480469 178.285156 216.425781 C 174.976562 216.355469 171.679688 216.558594 168.386719 216.832031 C 168.066406 216.859375 167.734375 217 167.355469 216.722656 C 167.90625 214.53125 168.328125 212.28125 168.5625 209.996094 C 169.078125 205.015625 169.175781 200.015625 169.234375 195.015625 C 169.375 183.53125 169.390625 172.046875 169.148438 160.566406 C 169.050781 155.949219 168.933594 151.335938 168.84375 146.722656 C 168.820312 145.417969 168.847656 145.378906 170.179688 145.296875 C 172.929688 145.136719 175.683594 145.152344 178.429688 144.898438 C 182.402344 144.527344 186.253906 143.691406 189.976562 142.269531 C 191.429688 141.710938 192.785156 140.992188 193.894531 139.882812 C 196.0625 137.726562 195.484375 135.273438 192.5625 134.3125 C 190.523438 133.644531 188.417969 133.804688 186.34375 134.109375 C 179.902344 135.050781 174.042969 137.335938 169.09375 141.730469 C 168.628906 140.195312 168.796875 132.050781 169.316406 129.28125 C 176.113281 129.925781 182.578125 128.769531 188.683594 125.699219 C 190.566406 124.75 192.316406 123.625 193.714844 122.023438 C 194.375 121.269531 194.914062 120.441406 195.175781 119.46875 C 195.613281 117.867188 194.957031 116.503906 193.4375 115.816406 C 192.351562 115.324219 191.179688 115.242188 190.035156 115.359375 C 182.65625 116.105469 175.835938 118.28125 170.128906 123.242188 C 170.054688 123.304688 169.9375 123.316406 169.832031 123.355469 C 169.546875 123.273438 169.617188 123.019531 169.632812 122.835938 C 170.082031 118.078125 170.4375 113.3125 171.164062 108.585938 C 171.339844 107.457031 171.355469 107.402344 172.507812 107.605469 C 178.425781 108.648438 183.996094 107.550781 189.351562 104.992188 C 191.632812 103.898438 193.9375 102.851562 195.960938 101.296875 C 196.972656 100.519531 197.871094 99.636719 198.589844 98.585938 C 199.222656 97.660156 199.625 96.65625 199.671875 95.519531 C 199.777344 92.6875 198.28125 90.9375 195.46875 90.59375 C 194.523438 90.480469 193.589844 90.582031 192.679688 90.777344 C 186.488281 92.117188 180.6875 94.386719 175.488281 98.0625 C 174.699219 98.621094 174.082031 99.417969 173.109375 99.839844 C 172.933594 99.132812 173.222656 98.582031 173.371094 98.019531 C 174.773438 92.6875 176.929688 87.640625 179.175781 82.628906 C 179.449219 82.019531 179.777344 81.625 180.53125 81.390625 C 182.105469 80.902344 183.484375 79.933594 184.847656 79.003906 C 187.988281 76.867188 190.996094 74.550781 193.8125 72 C 195.9375 70.074219 197.558594 67.820312 198.160156 64.964844 C 198.949219 61.242188 196.539062 57.855469 192.972656 57.636719 C 191.851562 57.566406 190.789062 57.835938 189.769531 58.289062 C 188.039062 59.058594 186.515625 60.132812 185.171875 61.453125 C 181.195312 65.359375 178.84375 70.113281 177.863281 75.5625 C 177.730469 76.3125 177.636719 77.113281 177.746094 77.855469 C 177.96875 79.351562 177.5 80.621094 176.878906 81.9375 C 175.800781 84.21875 174.871094 86.570312 173.886719 88.894531 C 173.757812 89.195312 173.71875 89.539062 173.359375 89.78125 C 172.984375 89.46875 172.933594 88.980469 172.757812 88.5625 C 170.851562 84.117188 167.914062 80.613281 163.492188 78.460938 C 163.296875 78.363281 163.09375 78.277344 162.894531 78.1875 C 161.023438 77.355469 159.117188 77.046875 157.5 78.585938 C 155.777344 80.21875 155.488281 82.316406 156.222656 84.515625 C 156.921875 86.625 158.335938 88.21875 160.144531 89.472656 C 162.5625 91.152344 165.285156 92.1875 168.046875 93.132812 C 169.035156 93.46875 170.027344 93.796875 171.003906 94.167969 C 171.550781 94.375 171.855469 94.644531 171.625 95.402344 C 170.085938 100.445312 169.058594 105.601562 168.421875 110.796875 C 167.875 111.007812 167.796875 110.570312 167.640625 110.351562 C 165.621094 107.46875 162.925781 105.476562 159.652344 104.214844 C 155.839844 102.742188 151.953125 101.578125 147.871094 101.164062 C 146.875 101.0625 145.890625 101.027344 144.914062 101.265625 C 142.96875 101.738281 141.871094 103.371094 142.203125 105.347656 C 142.4375 106.742188 143.09375 107.945312 144.070312 108.953125 C 147.714844 112.695312 151.957031 115.183594 157.328125 115.585938 C 160.355469 115.808594 163.378906 115.820312 166.40625 115.875 C 167.796875 115.902344 167.867188 115.960938 167.742188 117.242188 C 167.214844 122.65625 166.773438 128.074219 166.527344 133.511719 C 166.511719 133.816406 166.609375 134.175781 166.242188 134.421875 Z M 175.460938 250.257812 C 171.28125 250.570312 167.089844 250.320312 162.910156 250.507812 C 159.832031 250.644531 156.746094 250.914062 153.671875 250.460938 C 153.011719 250.363281 152.757812 250.609375 152.792969 251.25 C 152.980469 254.507812 153.492188 257.691406 155.066406 260.613281 C 156.125 262.574219 157.804688 263.65625 160.007812 263.652344 C 163.96875 263.640625 167.941406 263.714844 171.886719 263.203125 C 175.246094 262.769531 177.628906 261.148438 178.59375 257.761719 C 179.308594 255.238281 180.050781 252.722656 180.808594 250.105469 C 178.941406 249.992188 177.203125 250.128906 175.460938 250.257812 Z M 159.371094 239.1875 C 155.050781 238.785156 150.925781 238.828125 146.851562 238.179688 C 146.15625 238.070312 145.875 237.707031 145.789062 237.136719 C 145.441406 234.925781 145.128906 232.707031 144.804688 230.488281 C 144.710938 229.867188 144.960938 229.546875 145.613281 229.570312 C 146.492188 229.597656 147.382812 229.546875 148.25 229.65625 C 150.867188 229.984375 153.480469 230.296875 156.121094 230.25 C 157.5 230.226562 158.863281 230.558594 160.222656 230.511719 C 163.730469 230.394531 167.242188 230.347656 170.742188 229.988281 C 172.320312 229.824219 173.917969 229.730469 175.5 229.652344 C 177.914062 229.535156 180.320312 229.292969 182.730469 229.167969 C 184.703125 229.066406 186.675781 228.945312 188.652344 228.921875 C 190.023438 228.910156 190.132812 228.960938 189.992188 230.296875 C 189.824219 231.878906 189.632812 233.457031 189.691406 235.046875 C 189.722656 235.878906 189.339844 236.257812 188.597656 236.402344 C 187.253906 236.660156 185.910156 236.941406 184.558594 237.171875 C 181.851562 237.632812 179.113281 237.730469 176.375 237.917969 C 172.933594 238.15625 169.480469 238.289062 166.050781 238.734375 C 163.773438 239.03125 161.4375 238.820312 159.371094 239.1875 Z M 181.207031 105.152344 C 185.832031 104.207031 190.082031 102.300781 193.984375 99.671875 C 195.308594 98.777344 196.496094 97.691406 197.085938 96.132812 C 197.707031 94.484375 196.828125 93.109375 195.097656 93.054688 C 194.386719 93.03125 193.644531 93 192.960938 93.160156 C 186.539062 94.652344 180.496094 97.019531 175.269531 101.144531 C 174.238281 101.957031 173.277344 102.875 172.570312 104.011719 C 172.09375 104.777344 172.207031 105.183594 173.042969 105.226562 C 174.359375 105.289062 175.632812 105.777344 176.921875 105.589844 C 178.410156 105.722656 179.832031 105.433594 181.207031 105.152344 Z M 179.070312 126.382812 C 183.070312 125.683594 186.777344 124.203125 190.164062 121.980469 C 191.121094 121.355469 191.992188 120.550781 192.496094 119.476562 C 192.964844 118.46875 192.628906 117.871094 191.511719 117.816406 C 190.308594 117.75 189.09375 117.703125 187.894531 117.921875 C 184.863281 118.480469 181.917969 119.332031 179.066406 120.496094 C 176.566406 121.519531 174.167969 122.726562 172.082031 124.464844 C 171.617188 124.847656 171.148438 125.25 170.785156 125.722656 C 170.230469 126.445312 170.484375 126.957031 171.386719 127.023438 C 171.988281 127.066406 172.597656 127.03125 173.359375 127.03125 C 175.195312 127.136719 177.132812 126.71875 179.070312 126.382812 Z M 160.710938 132.042969 C 157.300781 129.390625 153.367188 127.894531 149.234375 126.847656 C 147.980469 126.53125 146.71875 126.644531 145.519531 127.160156 C 144.34375 127.664062 144.027344 128.5625 144.625 129.691406 C 145.023438 130.433594 145.613281 131.003906 146.339844 131.429688 C 148.667969 132.792969 151.085938 133.949219 153.714844 134.636719 C 157.171875 135.539062 160.707031 135.894531 164.390625 136.175781 C 163.585938 134.785156 161.949219 133.007812 160.710938 132.042969 Z M 160.757812 227.960938 C 155.671875 228.121094 150.578125 227.542969 145.46875 227.300781 C 144.714844 227.265625 144.363281 227.027344 144.371094 226.246094 C 144.382812 224.875 144.269531 223.511719 144.644531 222.15625 C 145.085938 220.558594 145.546875 219.65625 148.007812 219.800781 C 152.023438 220.035156 156.035156 220.039062 160.050781 219.980469 C 162.964844 219.933594 165.859375 219.523438 168.757812 219.257812 C 172.316406 218.929688 175.871094 218.613281 179.460938 218.902344 C 181.265625 219.050781 183.089844 218.929688 184.90625 218.949219 C 185.898438 218.960938 186.894531 218.949219 187.875 219.0625 C 189.503906 219.25 190.136719 219.984375 190.429688 221.570312 C 190.683594 222.953125 190.316406 224.300781 190.359375 225.667969 C 190.375 226.140625 190.070312 226.335938 189.625 226.371094 C 188.691406 226.4375 187.761719 226.570312 186.828125 226.585938 C 181.929688 226.671875 177.058594 227.160156 172.175781 227.539062 C 168.394531 227.832031 164.601562 228.125 160.757812 227.960938 Z M 147.300781 243.738281 C 147.964844 246.054688 149.574219 247.300781 151.859375 247.746094 C 154.679688 248.292969 157.511719 248.335938 160.390625 248.191406 C 166.214844 247.898438 172.054688 248.136719 177.878906 247.753906 C 179.578125 247.640625 181.285156 247.578125 182.976562 247.367188 C 184.234375 247.214844 185.554688 247.007812 186.4375 246.003906 C 188.242188 243.953125 188.808594 241.433594 189.101562 238.683594 C 188.515625 238.773438 188.136719 238.804688 187.765625 238.886719 C 184.816406 239.550781 181.84375 240.027344 178.816406 240.253906 C 176.675781 240.414062 174.53125 240.40625 172.394531 240.601562 C 169.21875 240.898438 166.046875 241.242188 162.867188 241.402344 C 157.472656 241.671875 152.09375 241.390625 146.5625 240.582031 C 146.628906 241.789062 147.015625 242.75 147.300781 243.738281 Z M 180.046875 78.761719 C 180.546875 79.019531 180.867188 78.589844 181.222656 78.386719 C 185.523438 75.90625 189.382812 72.832031 192.988281 69.441406 C 194.503906 68.023438 195.496094 66.246094 195.855469 64.183594 C 196.332031 61.457031 194.039062 59.453125 191.390625 60.25 C 190.269531 60.589844 189.292969 61.199219 188.363281 61.890625 C 185.613281 63.945312 183.699219 66.671875 182.175781 69.679688 C 180.929688 72.140625 180.140625 74.757812 179.855469 77.347656 C 179.824219 78.324219 179.855469 78.667969 180.046875 78.761719 Z M 160.730469 107.351562 C 157.460938 105.730469 153.996094 104.671875 150.417969 103.964844 C 149.066406 103.699219 147.703125 103.515625 146.320312 103.5625 C 144.757812 103.617188 144.273438 104.355469 144.851562 105.820312 C 144.988281 106.171875 145.1875 106.527344 145.441406 106.804688 C 147.839844 109.445312 150.535156 111.667969 154.097656 112.558594 C 158.195312 113.585938 162.378906 113.5 166.875 113.507812 C 165.347656 110.625 163.351562 108.65625 160.730469 107.351562 Z M 158.804688 84.5 C 159.535156 85.898438 160.617188 86.972656 161.949219 87.796875 C 164.488281 89.371094 167.261719 90.410156 170.113281 91.257812 C 170.421875 91.351562 170.765625 91.574219 171.039062 91.320312 C 171.371094 91.007812 171.15625 90.605469 171.023438 90.257812 C 169.25 85.714844 166.277344 82.273438 161.738281 80.308594 C 159.640625 79.398438 158.277344 80.335938 158.28125 82.695312 C 158.246094 83.304688 158.496094 83.914062 158.804688 84.5 Z M 181.582031 142.070312 C 184.503906 141.589844 187.378906 140.851562 190.082031 139.589844 C 190.929688 139.191406 191.757812 138.753906 192.359375 138.003906 C 192.84375 137.40625 192.773438 137.023438 192.09375 136.714844 C 191.386719 136.398438 190.628906 136.28125 189.847656 136.28125 C 185.777344 136.28125 181.925781 137.320312 178.171875 138.761719 C 175.761719 139.683594 173.535156 140.96875 171.183594 142.855469 C 174.941406 142.84375 178.28125 142.613281 181.582031 142.070312 Z M 181.582031 142.070312 " fill-opacity="1" fill-rule="nonzero"/><path fill="#0a0a09" d="M 148.148438 217.308594 C 147.90625 215.707031 147.375 214.328125 146.835938 212.957031 C 144.925781 208.097656 142.667969 203.398438 140.449219 198.675781 C 137.226562 191.824219 134.273438 184.839844 130.695312 178.152344 C 126.316406 169.957031 121.28125 162.15625 116.234375 154.359375 C 111.460938 146.976562 106.757812 139.554688 102.917969 131.625 C 99.125 123.796875 95.867188 115.757812 94.136719 107.207031 C 90 86.726562 93.796875 67.839844 105.792969 50.644531 C 115.121094 37.28125 127.707031 28.136719 142.769531 22.207031 C 150.480469 19.167969 158.480469 17.207031 166.65625 15.925781 C 171.773438 15.125 176.90625 14.5 182.105469 14.578125 C 189.980469 14.695312 197.449219 16.398438 204.585938 19.785156 C 215.054688 24.75 223.886719 31.761719 231.4375 40.480469 C 235.40625 45.058594 239.160156 49.773438 242.289062 54.984375 C 247.175781 63.121094 250.109375 71.898438 251.117188 81.316406 C 251.988281 89.480469 251.972656 97.65625 251.117188 105.828125 C 250.078125 115.710938 247.207031 125.046875 242.789062 133.941406 C 236.296875 147.019531 228.660156 159.363281 219.507812 170.789062 C 212.253906 179.839844 205.214844 189.066406 198.410156 198.464844 C 195.53125 202.4375 193.289062 206.78125 191.15625 211.183594 C 190.433594 212.675781 190.050781 214.28125 189.777344 215.910156 C 189.667969 216.546875 189.667969 217.023438 190.398438 217.378906 C 191.910156 218.117188 192.597656 219.460938 192.816406 221.082031 C 193.160156 223.667969 192.730469 226.234375 192.574219 228.804688 C 192.410156 231.433594 192.261719 234.070312 191.988281 236.679688 C 191.675781 239.707031 191.121094 242.761719 189.695312 245.550781 C 188.664062 247.574219 187.148438 248.992188 184.863281 249.421875 C 183.890625 249.601562 183.328125 250.078125 183.074219 251.046875 C 182.6875 252.535156 182.21875 254 181.777344 255.472656 C 181.433594 256.628906 181.109375 257.792969 180.726562 258.933594 C 179.371094 262.976562 176.417969 265.007812 172.292969 265.550781 C 168.296875 266.082031 164.269531 266.09375 160.253906 266.085938 C 156.753906 266.078125 154.167969 264.386719 152.675781 261.179688 C 151.234375 258.085938 150.628906 254.804688 150.667969 251.417969 C 150.679688 250.414062 150.492188 249.847656 149.445312 249.46875 C 147.164062 248.65625 145.804688 246.898438 145.054688 244.644531 C 144.199219 242.085938 143.710938 239.441406 143.28125 236.78125 C 142.722656 233.3125 142.265625 229.828125 142.035156 226.316406 C 141.902344 224.269531 142.082031 222.265625 142.941406 220.351562 C 143.832031 218.375 145.121094 217.066406 147.5 217.386719 C 147.65625 217.40625 147.820312 217.351562 148.148438 217.308594 Z M 166.242188 134.421875 C 166.609375 134.175781 166.511719 133.816406 166.527344 133.511719 C 166.773438 128.074219 167.214844 122.65625 167.742188 117.242188 C 167.867188 115.960938 167.796875 115.902344 166.40625 115.875 C 163.378906 115.820312 160.355469 115.808594 157.328125 115.585938 C 151.957031 115.183594 147.714844 112.695312 144.070312 108.953125 C 143.09375 107.945312 142.4375 106.742188 142.203125 105.347656 C 141.871094 103.371094 142.96875 101.738281 144.914062 101.265625 C 145.890625 101.027344 146.875 101.0625 147.871094 101.164062 C 151.953125 101.578125 155.839844 102.742188 159.652344 104.214844 C 162.925781 105.476562 165.621094 107.46875 167.640625 110.351562 C 167.796875 110.570312 167.875 111.007812 168.421875 110.796875 C 169.058594 105.601562 170.085938 100.445312 171.625 95.402344 C 171.855469 94.644531 171.550781 94.375 171.003906 94.167969 C 170.027344 93.796875 169.035156 93.46875 168.046875 93.132812 C 165.285156 92.1875 162.5625 91.152344 160.144531 89.472656 C 158.335938 88.21875 156.921875 86.625 156.222656 84.515625 C 155.488281 82.316406 155.777344 80.21875 157.5 78.585938 C 159.117188 77.046875 161.023438 77.355469 162.894531 78.1875 C 163.09375 78.277344 163.296875 78.363281 163.492188 78.460938 C 167.914062 80.613281 170.851562 84.117188 172.757812 88.5625 C 172.933594 88.980469 172.984375 89.46875 173.359375 89.78125 C 173.71875 89.539062 173.757812 89.195312 173.886719 88.894531 C 174.871094 86.570312 175.800781 84.21875 176.878906 81.9375 C 177.5 80.621094 177.96875 79.351562 177.746094 77.855469 C 177.636719 77.113281 177.730469 76.3125 177.867188 75.5625 C 178.84375 70.113281 181.195312 65.359375 185.171875 61.453125 C 186.515625 60.132812 188.039062 59.058594 189.769531 58.289062 C 190.789062 57.835938 191.851562 57.566406 192.972656 57.636719 C 196.539062 57.855469 198.949219 61.242188 198.160156 64.964844 C 197.558594 67.820312 195.9375 70.074219 193.8125 72 C 190.996094 74.550781 187.988281 76.867188 184.847656 79.003906 C 183.484375 79.933594 182.105469 80.902344 180.53125 81.390625 C 179.777344 81.625 179.449219 82.019531 179.175781 82.628906 C 176.929688 87.640625 174.773438 92.6875 173.371094 98.019531 C 173.222656 98.582031 172.933594 99.132812 173.109375 99.839844 C 174.082031 99.417969 174.699219 98.621094 175.488281 98.0625 C 180.6875 94.386719 186.488281 92.117188 192.679688 90.777344 C 193.589844 90.582031 194.523438 90.480469 195.46875 90.59375 C 198.28125 90.9375 199.777344 92.6875 199.671875 95.519531 C 199.625 96.65625 199.222656 97.660156 198.589844 98.585938 C 197.871094 99.636719 196.972656 100.519531 195.960938 101.296875 C 193.9375 102.851562 191.632812 103.898438 189.351562 104.992188 C 183.996094 107.550781 178.425781 108.648438 172.507812 107.605469 C 171.355469 107.402344 171.339844 107.457031 171.164062 108.585938 C 170.4375 113.3125 170.082031 118.078125 169.632812 122.835938 C 169.617188 123.019531 169.546875 123.273438 169.832031 123.355469 C 169.9375 123.316406 170.054688 123.304688 170.128906 123.242188 C 175.835938 118.28125 182.65625 116.105469 190.035156 115.359375 C 191.179688 115.242188 192.351562 115.324219 193.4375 115.816406 C 194.957031 116.503906 195.613281 117.867188 195.175781 119.46875 C 194.914062 120.441406 194.375 121.269531 193.714844 122.023438 C 192.316406 123.625 190.566406 124.75 188.683594 125.699219 C 182.578125 128.769531 176.113281 129.925781 169.316406 129.28125 C 168.796875 132.050781 168.628906 140.195312 169.09375 141.730469 C 174.042969 137.335938 179.902344 135.050781 186.34375 134.109375 C 188.417969 133.804688 190.523438 133.644531 192.5625 134.3125 C 195.484375 135.273438 196.0625 137.726562 193.894531 139.882812 C 192.785156 140.992188 191.429688 141.710938 189.976562 142.269531 C 186.253906 143.691406 182.402344 144.527344 178.429688 144.898438 C 175.683594 145.152344 172.929688 145.136719 170.179688 145.296875 C 168.847656 145.378906 168.820312 145.417969 168.84375 146.722656 C 168.933594 151.335938 169.050781 155.949219 169.148438 160.566406 C 169.390625 172.046875 169.375 183.53125 169.234375 195.015625 C 169.175781 200.015625 169.078125 205.015625 168.5625 209.996094 C 168.328125 212.28125 167.90625 214.53125 167.355469 216.722656 C 167.734375 217 168.066406 216.859375 168.386719 216.832031 C 171.679688 216.558594 174.976562 216.355469 178.285156 216.425781 C 180.984375 216.480469 183.683594 216.433594 186.382812 216.480469 C 187.070312 216.492188 187.339844 216.304688 187.421875 215.59375 C 187.648438 213.675781 188.179688 211.824219 189.023438 210.082031 C 191.226562 205.527344 193.566406 201.050781 196.546875 196.941406 C 203.390625 187.503906 210.46875 178.242188 217.75 169.140625 C 226.96875 157.625 234.640625 145.167969 241.078125 131.933594 C 245.027344 123.8125 247.609375 115.300781 248.617188 106.308594 C 249.523438 98.246094 249.574219 90.183594 248.777344 82.125 C 247.980469 74.066406 245.761719 66.414062 241.925781 59.238281 C 238.402344 52.644531 233.847656 46.824219 228.914062 41.242188 C 221.945312 33.359375 213.847656 27.003906 204.371094 22.339844 C 197.121094 18.769531 189.503906 17 181.449219 16.953125 C 176.753906 16.925781 172.113281 17.519531 167.484375 18.230469 C 158.644531 19.585938 150.019531 21.738281 141.753906 25.207031 C 128.976562 30.570312 118.039062 38.367188 109.628906 49.488281 C 95.972656 67.554688 91.824219 87.613281 97.167969 109.570312 C 99.4375 118.90625 103.335938 127.628906 107.910156 136.058594 C 111.847656 143.304688 116.402344 150.179688 120.863281 157.109375 C 127.085938 166.769531 133.0625 176.566406 137.757812 187.082031 C 139.613281 191.242188 141.589844 195.351562 143.488281 199.496094 C 146.046875 205.082031 148.824219 210.585938 150.300781 216.597656 C 150.460938 217.257812 150.804688 217.488281 151.449219 217.503906 C 155.632812 217.589844 159.820312 217.71875 164 217.363281 C 164.667969 217.308594 164.851562 217.027344 165.070312 216.421875 C 165.789062 214.429688 166.039062 212.363281 166.222656 210.285156 C 166.671875 205.246094 166.75 200.191406 166.847656 195.140625 C 167.179688 177.773438 166.671875 160.414062 166.398438 143.050781 C 166.390625 142.449219 166.390625 141.84375 166.375 141.238281 C 166.324219 139.421875 165.878906 138.90625 164.152344 138.65625 C 163.714844 138.59375 163.273438 138.566406 162.835938 138.527344 C 159.105469 138.183594 155.382812 137.789062 151.800781 136.605469 C 149.179688 135.742188 146.628906 134.703125 144.40625 133.039062 C 142.320312 131.476562 141.382812 129.25 141.980469 127.515625 C 142.601562 125.71875 144.636719 124.488281 147.164062 124.363281 C 148.613281 124.292969 150.007812 124.523438 151.394531 124.929688 C 157.117188 126.601562 162.25 129.183594 165.875 134.132812 C 165.964844 134.253906 166.117188 134.324219 166.242188 134.421875 Z M 159.371094 239.1875 C 161.4375 238.820312 163.773438 239.03125 166.050781 238.734375 C 169.480469 238.289062 172.933594 238.15625 176.375 237.917969 C 179.113281 237.730469 181.851562 237.632812 184.558594 237.171875 C 185.910156 236.941406 187.253906 236.660156 188.597656 236.402344 C 189.339844 236.257812 189.722656 235.878906 189.691406 235.046875 C 189.632812 233.457031 189.824219 231.878906 189.992188 230.296875 C 190.132812 228.960938 190.023438 228.910156 188.652344 228.921875 C 186.675781 228.945312 184.703125 229.066406 182.730469 229.167969 C 180.320312 229.292969 177.914062 229.535156 175.5 229.652344 C 173.917969 229.730469 172.320312 229.824219 170.742188 229.988281 C 167.242188 230.347656 163.730469 230.394531 160.222656 230.511719 C 158.863281 230.558594 157.5 230.226562 156.121094 230.25 C 153.480469 230.296875 150.867188 229.984375 148.25 229.65625 C 147.382812 229.546875 146.492188 229.597656 145.613281 229.570312 C 144.960938 229.546875 144.710938 229.867188 144.804688 230.488281 C 145.128906 232.707031 145.441406 234.925781 145.789062 237.136719 C 145.875 237.707031 146.15625 238.070312 146.851562 238.179688 C 150.925781 238.828125 155.050781 238.785156 159.371094 239.1875 Z M 160.757812 227.960938 C 164.601562 228.125 168.394531 227.832031 172.175781 227.539062 C 177.058594 227.160156 181.929688 226.671875 186.828125 226.585938 C 187.761719 226.570312 188.691406 226.4375 189.625 226.371094 C 190.070312 226.335938 190.375 226.140625 190.359375 225.667969 C 190.316406 224.300781 190.683594 222.953125 190.429688 221.570312 C 190.136719 219.984375 189.503906 219.25 187.875 219.0625 C 186.894531 218.949219 185.898438 218.960938 184.90625 218.949219 C 183.089844 218.929688 181.265625 219.050781 179.460938 218.902344 C 175.871094 218.613281 172.316406 218.929688 168.757812 219.257812 C 165.859375 219.523438 162.964844 219.933594 160.050781 219.980469 C 156.035156 220.039062 152.023438 220.035156 148.007812 219.800781 C 145.546875 219.65625 145.085938 220.558594 144.644531 222.15625 C 144.269531 223.511719 144.382812 224.875 144.371094 226.246094 C 144.363281 227.027344 144.714844 227.265625 145.46875 227.300781 C 150.578125 227.542969 155.671875 228.121094 160.757812 227.960938 Z M 180.808594 250.105469 C 178.941406 249.992188 177.203125 250.128906 175.460938 250.257812 C 171.28125 250.570312 167.089844 250.320312 162.910156 250.507812 C 159.832031 250.644531 156.746094 250.914062 153.671875 250.460938 C 153.011719 250.363281 152.757812 250.609375 152.792969 251.25 C 152.980469 254.507812 153.492188 257.691406 155.066406 260.613281 C 156.125 262.574219 157.804688 263.65625 160.007812 263.652344 C 163.96875 263.640625 167.941406 263.714844 171.886719 263.203125 C 175.246094 262.769531 177.628906 261.148438 178.59375 257.761719 C 179.308594 255.238281 180.050781 252.722656 180.808594 250.105469 Z M 146.5625 240.582031 C 146.628906 241.789062 147.015625 242.75 147.300781 243.738281 C 147.964844 246.054688 149.574219 247.300781 151.859375 247.746094 C 154.679688 248.292969 157.511719 248.335938 160.390625 248.191406 C 166.214844 247.898438 172.054688 248.136719 177.878906 247.753906 C 179.578125 247.640625 181.285156 247.578125 182.976562 247.367188 C 184.234375 247.214844 185.554688 247.007812 186.4375 246.003906 C 188.242188 243.953125 188.808594 241.433594 189.101562 238.683594 C 188.515625 238.773438 188.136719 238.804688 187.765625 238.886719 C 184.816406 239.550781 181.84375 240.027344 178.816406 240.253906 C 176.675781 240.414062 174.53125 240.40625 172.394531 240.601562 C 169.21875 240.898438 166.046875 241.242188 162.867188 241.402344 C 157.472656 241.671875 152.09375 241.390625 146.5625 240.582031 Z M 176.921875 105.589844 C 178.410156 105.722656 179.832031 105.433594 181.207031 105.152344 C 185.832031 104.207031 190.082031 102.300781 193.984375 99.671875 C 195.308594 98.777344 196.496094 97.691406 197.085938 96.132812 C 197.707031 94.484375 196.828125 93.109375 195.097656 93.054688 C 194.386719 93.03125 193.644531 93 192.960938 93.160156 C 186.539062 94.652344 180.496094 97.019531 175.269531 101.144531 C 174.238281 101.957031 173.277344 102.875 172.570312 104.011719 C 172.09375 104.777344 172.207031 105.183594 173.042969 105.226562 C 174.359375 105.289062 175.632812 105.777344 176.921875 105.589844 Z M 179.855469 77.347656 C 179.824219 78.324219 179.855469 78.667969 180.046875 78.761719 C 180.546875 79.019531 180.867188 78.589844 181.222656 78.386719 C 185.523438 75.90625 189.382812 72.832031 192.988281 69.441406 C 194.503906 68.023438 195.496094 66.246094 195.855469 64.183594 C 196.332031 61.457031 194.039062 59.453125 191.390625 60.25 C 190.269531 60.589844 189.292969 61.199219 188.363281 61.890625 C 185.613281 63.945312 183.699219 66.671875 182.175781 69.679688 C 180.929688 72.140625 180.140625 74.757812 179.855469 77.347656 Z M 166.875 113.507812 C 165.347656 110.625 163.351562 108.65625 160.730469 107.351562 C 157.460938 105.730469 153.996094 104.671875 150.417969 103.964844 C 149.066406 103.699219 147.703125 103.515625 146.320312 103.5625 C 144.757812 103.617188 144.273438 104.355469 144.851562 105.820312 C 144.988281 106.171875 145.1875 106.527344 145.441406 106.804688 C 147.839844 109.445312 150.535156 111.667969 154.097656 112.558594 C 158.195312 113.585938 162.378906 113.5 166.875 113.507812 Z M 173.359375 127.03125 C 175.195312 127.136719 177.132812 126.71875 179.070312 126.382812 C 183.070312 125.683594 186.777344 124.203125 190.164062 121.980469 C 191.121094 121.355469 191.992188 120.550781 192.496094 119.476562 C 192.964844 118.46875 192.628906 117.871094 191.511719 117.816406 C 190.308594 117.75 189.09375 117.703125 187.894531 117.921875 C 184.863281 118.480469 181.917969 119.332031 179.066406 120.496094 C 176.566406 121.519531 174.167969 122.726562 172.082031 124.464844 C 171.617188 124.847656 171.148438 125.25 170.785156 125.722656 C 170.230469 126.445312 170.484375 126.957031 171.386719 127.023438 C 171.988281 127.066406 172.597656 127.03125 173.359375 127.03125 Z M 164.390625 136.175781 C 163.585938 134.785156 161.949219 133.007812 160.710938 132.042969 C 157.300781 129.390625 153.367188 127.894531 149.234375 126.847656 C 147.980469 126.53125 146.71875 126.644531 145.519531 127.160156 C 144.34375 127.664062 144.027344 128.5625 144.625 129.691406 C 145.023438 130.433594 145.613281 131.003906 146.339844 131.429688 C 148.667969 132.792969 151.085938 133.949219 153.714844 134.636719 C 157.171875 135.539062 160.707031 135.894531 164.390625 136.175781 Z M 158.28125 82.695312 C 158.246094 83.304688 158.496094 83.914062 158.804688 84.5 C 159.535156 85.898438 160.617188 86.972656 161.949219 87.796875 C 164.488281 89.371094 167.261719 90.410156 170.113281 91.257812 C 170.421875 91.351562 170.765625 91.574219 171.039062 91.320312 C 171.371094 91.007812 171.15625 90.605469 171.023438 90.257812 C 169.25 85.714844 166.277344 82.273438 161.738281 80.308594 C 159.640625 79.398438 158.277344 80.335938 158.28125 82.695312 Z M 171.183594 142.855469 C 174.941406 142.84375 178.28125 142.613281 181.582031 142.070312 C 184.503906 141.589844 187.378906 140.851562 190.082031 139.589844 C 190.929688 139.191406 191.757812 138.753906 192.359375 138.003906 C 192.84375 137.40625 192.773438 137.023438 192.09375 136.714844 C 191.386719 136.398438 190.628906 136.28125 189.847656 136.28125 C 185.777344 136.28125 181.925781 137.320312 178.171875 138.761719 C 175.761719 139.683594 173.535156 140.96875 171.183594 142.855469 Z M 171.183594 142.855469 " fill-opacity="1" fill-rule="nonzero"/></g><path fill="#fefefe" d="M 166.242188 134.421875 C 166.117188 134.324219 165.964844 134.253906 165.875 134.132812 C 162.25 129.183594 157.117188 126.601562 151.394531 124.929688 C 150.007812 124.523438 148.613281 124.292969 147.164062 124.363281 C 144.636719 124.488281 142.601562 125.71875 141.980469 127.515625 C 141.382812 129.25 142.320312 131.476562 144.40625 133.039062 C 146.628906 134.703125 149.179688 135.742188 151.800781 136.605469 C 155.382812 137.789062 159.105469 138.183594 162.835938 138.527344 C 163.273438 138.566406 163.714844 138.59375 164.152344 138.65625 C 165.878906 138.90625 166.324219 139.421875 166.375 141.238281 C 166.390625 141.84375 166.390625 142.449219 166.398438 143.050781 C 166.671875 160.414062 167.179688 177.773438 166.847656 195.140625 C 166.75 200.191406 166.671875 205.246094 166.222656 210.285156 C 166.039062 212.363281 165.789062 214.429688 165.070312 216.421875 C 164.851562 217.027344 164.667969 217.308594 164 217.363281 C 159.820312 217.71875 155.632812 217.589844 151.449219 217.503906 C 150.804688 217.488281 150.460938 217.257812 150.300781 216.597656 C 148.824219 210.585938 146.046875 205.082031 143.488281 199.496094 C 141.589844 195.351562 139.613281 191.242188 137.757812 187.082031 C 133.0625 176.566406 127.085938 166.769531 120.863281 157.109375 C 116.402344 150.179688 111.847656 143.304688 107.910156 136.058594 C 103.335938 127.628906 99.4375 118.90625 97.167969 109.570312 C 91.824219 87.613281 95.972656 67.554688 109.628906 49.488281 C 118.039062 38.367188 128.976562 30.570312 141.753906 25.207031 C 150.019531 21.738281 158.644531 19.585938 167.484375 18.230469 C 172.113281 17.519531 176.753906 16.925781 181.449219 16.953125 C 189.503906 17 197.121094 18.769531 204.371094 22.339844 C 213.847656 27.003906 221.945312 33.359375 228.914062 41.242188 C 233.847656 46.824219 238.402344 52.644531 241.925781 59.238281 C 245.761719 66.414062 247.980469 74.066406 248.777344 82.125 C 249.574219 90.183594 249.523438 98.246094 248.617188 106.308594 C 247.609375 115.300781 245.027344 123.8125 241.078125 131.933594 C 234.640625 145.167969 226.96875 157.625 217.75 169.140625 C 210.46875 178.242188 203.390625 187.503906 196.546875 196.941406 C 193.566406 201.050781 191.226562 205.527344 189.023438 210.082031 C 188.179688 211.824219 187.648438 213.675781 187.421875 215.59375 C 187.339844 216.304688 187.070312 216.492188 186.382812 216.480469 C 183.683594 216.433594 180.984375 216.480469 178.285156 216.425781 C 174.976562 216.355469 171.679688 216.558594 168.386719 216.832031 C 168.066406 216.859375 167.734375 217 167.355469 216.722656 C 167.90625 214.53125 168.328125 212.28125 168.5625 209.996094 C 169.078125 205.015625 169.175781 200.015625 169.234375 195.015625 C 169.375 183.53125 169.390625 172.046875 169.148438 160.566406 C 169.050781 155.949219 168.933594 151.335938 168.84375 146.722656 C 168.820312 145.417969 168.847656 145.378906 170.179688 145.296875 C 172.929688 145.136719 175.683594 145.152344 178.429688 144.898438 C 182.402344 144.527344 186.253906 143.691406 189.976562 142.269531 C 191.429688 141.710938 192.785156 140.992188 193.894531 139.882812 C 196.0625 137.726562 195.484375 135.273438 192.5625 134.3125 C 190.523438 133.644531 188.417969 133.804688 186.34375 134.109375 C 179.902344 135.050781 174.042969 137.335938 169.09375 141.730469 C 168.628906 140.195312 168.796875 132.050781 169.316406 129.28125 C 176.113281 129.925781 182.578125 128.769531 188.683594 125.699219 C 190.566406 124.75 192.316406 123.625 193.714844 122.023438 C 194.375 121.269531 194.914062 120.441406 195.175781 119.46875 C 195.613281 117.867188 194.957031 116.503906 193.4375 115.816406 C 192.351562 115.324219 191.179688 115.242188 190.035156 115.359375 C 182.65625 116.105469 175.835938 118.28125 170.128906 123.242188 C 170.054688 123.304688 169.9375 123.316406 169.832031 123.355469 C 169.546875 123.273438 169.617188 123.019531 169.632812 122.835938 C 170.082031 118.078125 170.4375 113.3125 171.164062 108.585938 C 171.339844 107.457031 171.355469 107.402344 172.507812 107.605469 C 178.425781 108.648438 183.996094 107.550781 189.351562 104.992188 C 191.632812 103.898438 193.9375 102.851562 195.960938 101.296875 C 196.972656 100.519531 197.871094 99.636719 198.589844 98.585938 C 199.222656 97.660156 199.625 96.65625 199.671875 95.519531 C 199.777344 92.6875 198.28125 90.9375 195.46875 90.59375 C 194.523438 90.480469 193.589844 90.582031 192.679688 90.777344 C 186.488281 92.117188 180.6875 94.386719 175.488281 98.0625 C 174.699219 98.621094 174.082031 99.417969 173.109375 99.839844 C 172.933594 99.132812 173.222656 98.582031 173.371094 98.019531 C 174.773438 92.6875 176.929688 87.640625 179.175781 82.628906 C 179.449219 82.019531 179.777344 81.625 180.53125 81.390625 C 182.105469 80.902344 183.484375 79.933594 184.847656 79.003906 C 187.988281 76.867188 190.996094 74.550781 193.8125 72 C 195.9375 70.074219 197.558594 67.820312 198.160156 64.964844 C 198.949219 61.242188 196.539062 57.855469 192.972656 57.636719 C 191.851562 57.566406 190.789062 57.835938 189.769531 58.289062 C 188.039062 59.058594 186.515625 60.132812 185.171875 61.453125 C 181.195312 65.359375 178.84375 70.113281 177.863281 75.5625 C 177.730469 76.3125 177.636719 77.113281 177.746094 77.855469 C 177.96875 79.351562 177.5 80.621094 176.878906 81.9375 C 175.800781 84.21875 174.871094 86.570312 173.886719 88.894531 C 173.757812 89.195312 173.71875 89.539062 173.359375 89.78125 C 172.984375 89.46875 172.933594 88.980469 172.757812 88.5625 C 170.851562 84.117188 167.914062 80.613281 163.492188 78.460938 C 163.296875 78.363281 163.09375 78.277344 162.894531 78.1875 C 161.023438 77.355469 159.117188 77.046875 157.5 78.585938 C 155.777344 80.21875 155.488281 82.316406 156.222656 84.515625 C 156.921875 86.625 158.335938 88.21875 160.144531 89.472656 C 162.5625 91.152344 165.285156 92.1875 168.046875 93.132812 C 169.035156 93.46875 170.027344 93.796875 171.003906 94.167969 C 171.550781 94.375 171.855469 94.644531 171.625 95.402344 C 170.085938 100.445312 169.058594 105.601562 168.421875 110.796875 C 167.875 111.007812 167.796875 110.570312 167.640625 110.351562 C 165.621094 107.46875 162.925781 105.476562 159.652344 104.214844 C 155.839844 102.742188 151.953125 101.578125 147.871094 101.164062 C 146.875 101.0625 145.890625 101.027344 144.914062 101.265625 C 142.96875 101.738281 141.871094 103.371094 142.203125 105.347656 C 142.4375 106.742188 143.09375 107.945312 144.070312 108.953125 C 147.714844 112.695312 151.957031 115.183594 157.328125 115.585938 C 160.355469 115.808594 163.378906 115.820312 166.40625 115.875 C 167.796875 115.902344 167.867188 115.960938 167.742188 117.242188 C 167.214844 122.65625 166.773438 128.074219 166.527344 133.511719 C 166.511719 133.816406 166.609375 134.175781 166.242188 134.421875 Z M 175.460938 250.257812 C 171.28125 250.570312 167.089844 250.320312 162.910156 250.507812 C 159.832031 250.644531 156.746094 250.914062 153.671875 250.460938 C 153.011719 250.363281 152.757812 250.609375 152.792969 251.25 C 152.980469 254.507812 153.492188 257.691406 155.066406 260.613281 C 156.125 262.574219 157.804688 263.65625 160.007812 263.652344 C 163.96875 263.640625 167.941406 263.714844 171.886719 263.203125 C 175.246094 262.769531 177.628906 261.148438 178.59375 257.761719 C 179.308594 255.238281 180.050781 252.722656 180.808594 250.105469 C 178.941406 249.992188 177.203125 250.128906 175.460938 250.257812 Z M 175.460938 250.257812 " fill-opacity="1" fill-rule="nonzero"/><path fill="#146233" d="M 159.371094 239.1875 C 155.050781 238.785156 150.925781 238.828125 146.851562 238.179688 C 146.15625 238.070312 145.875 237.707031 145.789062 237.136719 C 145.441406 234.925781 145.128906 232.707031 144.804688 230.488281 C 144.710938 229.867188 144.960938 229.546875 145.613281 229.570312 C 146.492188 229.597656 147.382812 229.546875 148.25 229.65625 C 150.867188 229.984375 153.480469 230.296875 156.121094 230.25 C 157.5 230.226562 158.863281 230.558594 160.222656 230.511719 C 163.730469 230.394531 167.242188 230.347656 170.742188 229.988281 C 172.320312 229.824219 173.917969 229.730469 175.5 229.652344 C 177.914062 229.535156 180.320312 229.292969 182.730469 229.167969 C 184.703125 229.066406 186.675781 228.945312 188.652344 228.921875 C 190.023438 228.910156 190.132812 228.960938 189.992188 230.296875 C 189.824219 231.878906 189.632812 233.457031 189.691406 235.046875 C 189.722656 235.878906 189.339844 236.257812 188.597656 236.402344 C 187.253906 236.660156 185.910156 236.941406 184.558594 237.171875 C 181.851562 237.632812 179.113281 237.730469 176.375 237.917969 C 172.933594 238.15625 169.480469 238.289062 166.050781 238.734375 C 163.773438 239.03125 161.4375 238.820312 159.371094 239.1875 Z M 181.207031 105.152344 C 185.832031 104.207031 190.082031 102.300781 193.984375 99.671875 C 195.308594 98.777344 196.496094 97.691406 197.085938 96.132812 C 197.707031 94.484375 196.828125 93.109375 195.097656 93.054688 C 194.386719 93.03125 193.644531 93 192.960938 93.160156 C 186.539062 94.652344 180.496094 97.019531 175.269531 101.144531 C 174.238281 101.957031 173.277344 102.875 172.570312 104.011719 C 172.09375 104.777344 172.207031 105.183594 173.042969 105.226562 C 174.359375 105.289062 175.632812 105.777344 176.921875 105.589844 C 178.410156 105.722656 179.832031 105.433594 181.207031 105.152344 Z M 179.070312 126.382812 C 183.070312 125.683594 186.777344 124.203125 190.164062 121.980469 C 191.121094 121.355469 191.992188 120.550781 192.496094 119.476562 C 192.964844 118.46875 192.628906 117.871094 191.511719 117.816406 C 190.308594 117.75 189.09375 117.703125 187.894531 117.921875 C 184.863281 118.480469 181.917969 119.332031 179.066406 120.496094 C 176.566406 121.519531 174.167969 122.726562 172.082031 124.464844 C 171.617188 124.847656 171.148438 125.25 170.785156 125.722656 C 170.230469 126.445312 170.484375 126.957031 171.386719 127.023438 C 171.988281 127.066406 172.597656 127.03125 173.359375 127.03125 C 175.195312 127.136719 177.132812 126.71875 179.070312 126.382812 Z M 160.710938 132.042969 C 157.300781 129.390625 153.367188 127.894531 149.234375 126.847656 C 147.980469 126.53125 146.71875 126.644531 145.519531 127.160156 C 144.34375 127.664062 144.027344 128.5625 144.625 129.691406 C 145.023438 130.433594 145.613281 131.003906 146.339844 131.429688 C 148.667969 132.792969 151.085938 133.949219 153.714844 134.636719 C 157.171875 135.539062 160.707031 135.894531 164.390625 136.175781 C 163.585938 134.785156 161.949219 133.007812 160.710938 132.042969 Z M 160.710938 132.042969 " fill-opacity="1" fill-rule="nonzero"/><path fill="#7a9729" d="M 160.757812 227.960938 C 155.671875 228.121094 150.578125 227.542969 145.46875 227.300781 C 144.714844 227.265625 144.363281 227.027344 144.371094 226.246094 C 144.382812 224.875 144.269531 223.511719 144.644531 222.15625 C 145.085938 220.558594 145.546875 219.65625 148.007812 219.800781 C 152.023438 220.035156 156.035156 220.039062 160.050781 219.980469 C 162.964844 219.933594 165.859375 219.523438 168.757812 219.257812 C 172.316406 218.929688 175.871094 218.613281 179.460938 218.902344 C 181.265625 219.050781 183.089844 218.929688 184.90625 218.949219 C 185.898438 218.960938 186.894531 218.949219 187.875 219.0625 C 189.503906 219.25 190.136719 219.984375 190.429688 221.570312 C 190.683594 222.953125 190.316406 224.300781 190.359375 225.667969 C 190.375 226.140625 190.070312 226.335938 189.625 226.371094 C 188.691406 226.4375 187.761719 226.570312 186.828125 226.585938 C 181.929688 226.671875 177.058594 227.160156 172.175781 227.539062 C 168.394531 227.832031 164.601562 228.125 160.757812 227.960938 Z M 147.300781 243.738281 C 147.964844 246.054688 149.574219 247.300781 151.859375 247.746094 C 154.679688 248.292969 157.511719 248.335938 160.390625 248.191406 C 166.214844 247.898438 172.054688 248.136719 177.878906 247.753906 C 179.578125 247.640625 181.285156 247.578125 182.976562 247.367188 C 184.234375 247.214844 185.554688 247.007812 186.4375 246.003906 C 188.242188 243.953125 188.808594 241.433594 189.101562 238.683594 C 188.515625 238.773438 188.136719 238.804688 187.765625 238.886719 C 184.816406 239.550781 181.84375 240.027344 178.816406 240.253906 C 176.675781 240.414062 174.53125 240.40625 172.394531 240.601562 C 169.21875 240.898438 166.046875 241.242188 162.867188 241.402344 C 157.472656 241.671875 152.09375 241.390625 146.5625 240.582031 C 146.628906 241.789062 147.015625 242.75 147.300781 243.738281 Z M 180.046875 78.761719 C 180.546875 79.019531 180.867188 78.589844 181.222656 78.386719 C 185.523438 75.90625 189.382812 72.832031 192.988281 69.441406 C 194.503906 68.023438 195.496094 66.246094 195.855469 64.183594 C 196.332031 61.457031 194.039062 59.453125 191.390625 60.25 C 190.269531 60.589844 189.292969 61.199219 188.363281 61.890625 C 185.613281 63.945312 183.699219 66.671875 182.175781 69.679688 C 180.929688 72.140625 180.140625 74.757812 179.855469 77.347656 C 179.824219 78.324219 179.855469 78.667969 180.046875 78.761719 Z M 160.730469 107.351562 C 157.460938 105.730469 153.996094 104.671875 150.417969 103.964844 C 149.066406 103.699219 147.703125 103.515625 146.320312 103.5625 C 144.757812 103.617188 144.273438 104.355469 144.851562 105.820312 C 144.988281 106.171875 145.1875 106.527344 145.441406 106.804688 C 147.839844 109.445312 150.535156 111.667969 154.097656 112.558594 C 158.195312 113.585938 162.378906 113.5 166.875 113.507812 C 165.347656 110.625 163.351562 108.65625 160.730469 107.351562 Z M 158.804688 84.5 C 159.535156 85.898438 160.617188 86.972656 161.949219 87.796875 C 164.488281 89.371094 167.261719 90.410156 170.113281 91.257812 C 170.421875 91.351562 170.765625 91.574219 171.039062 91.320312 C 171.371094 91.007812 171.15625 90.605469 171.023438 90.257812 C 169.25 85.714844 166.277344 82.273438 161.738281 80.308594 C 159.640625 79.398438 158.277344 80.335938 158.28125 82.695312 C 158.246094 83.304688 158.496094 83.914062 158.804688 84.5 Z M 181.582031 142.070312 C 184.503906 141.589844 187.378906 140.851562 190.082031 139.589844 C 190.929688 139.191406 191.757812 138.753906 192.359375 138.003906 C 192.84375 137.40625 192.773438 137.023438 192.09375 136.714844 C 191.386719 136.398438 190.628906 136.28125 189.847656 136.28125 C 185.777344 136.28125 181.925781 137.320312 178.171875 138.761719 C 175.761719 139.683594 173.535156 140.96875 171.183594 142.855469 C 174.941406 142.84375 178.28125 142.613281 181.582031 142.070312 Z M 181.582031 142.070312 " fill-opacity="1" fill-rule="nonzero"/></svg>